<svg xmlns="http://www.w3.org/2000/svg" width="900" height="150" viewBox="0 0 900 150">
<style>.title{font:600 13px sans-serif;fill:#1f2328}.axis{font:11px sans-serif;fill:#59636e}.grid{stroke:#d1d9e0;stroke-width:1}.wave{fill:none;stroke:#0969da;stroke-width:1.5}</style>
<rect width="900" height="150" fill="#ffffff"/>
<text x="30" y="18" class="title">#17 натискання: 1 імп. (1 фронт), 0.000 мс</text>
<text x="22" y="49" class="axis" text-anchor="end">1</text>
<text x="22" y="109" class="axis" text-anchor="end">0</text>
<line x1="30" y1="117" x2="430" y2="117" class="grid"/>
<line x1="130.00" y1="38" x2="130.00" y2="117" class="grid"/>
<text x="130.00" y="131" class="axis" text-anchor="middle">-0.005</text>
<line x1="230.00" y1="38" x2="230.00" y2="117" class="grid"/>
<text x="230.00" y="131" class="axis" text-anchor="middle">0</text>
<line x1="330.00" y1="38" x2="330.00" y2="117" class="grid"/>
<text x="330.00" y="131" class="axis" text-anchor="middle">0.005</text>
<line x1="430.00" y1="38" x2="430.00" y2="117" class="grid"/>
<text x="430.00" y="131" class="axis" text-anchor="middle">0.01</text>
<polyline points="30.00,45 230.00,45 230.00,105 430.00,105" class="wave"/>
<text x="470" y="18" class="title">відпускання: 7 імп. (15 фронтів), 0.084 мс</text>
<text x="462" y="49" class="axis" text-anchor="end">1</text>
<text x="462" y="109" class="axis" text-anchor="end">0</text>
<line x1="470" y1="117" x2="870" y2="117" class="grid"/>
<line x1="536.67" y1="38" x2="536.67" y2="117" class="grid"/>
<text x="536.67" y="131" class="axis" text-anchor="middle">0</text>
<line x1="694.85" y1="38" x2="694.85" y2="117" class="grid"/>
<text x="694.85" y="131" class="axis" text-anchor="middle">0.05</text>
<line x1="853.03" y1="38" x2="853.03" y2="117" class="grid"/>
<text x="853.03" y="131" class="axis" text-anchor="middle">0.1</text>
<polyline points="470.00,105 536.67,105 536.67,45 542.47,45 542.47,105 571.86,105 571.86,45 624.32,45 624.32,105 652.93,105 652.93,45 680.61,45 680.61,105 706.05,105 706.05,45 707.24,45 707.24,105 719.10,105 719.10,45 723.98,45 723.98,105 746.65,105 746.65,45 754.69,45 754.69,105 777.37,105 777.37,45 780.27,45 780.27,105 803.33,105 803.33,45 870.00,45" class="wave"/>
<text x="888" y="144" class="axis" text-anchor="end">мс від першого фронту</text>
</svg>
